<?xml version="1.0" encoding="utf-8"?>
<!DOCTYPE svg PUBLIC "-//W3C//DTD SVG 1.1//EN" "http://www.w3.org/Graphics/SVG/1.1/DTD/svg11.dtd">
<svg version="1.1"
	 id="svg2" inkscape:version="0.48.4 r9939" xmlns:rdf="http://www.w3.org/1999/02/22-rdf-syntax-ns#" xmlns:sodipodi="http://sodipodi.sourceforge.net/DTD/sodipodi-0.dtd" xmlns:inkscape="http://www.inkscape.org/namespaces/inkscape" xmlns:svg="http://www.w3.org/2000/svg" xmlns:dc="http://purl.org/dc/elements/1.1/" xmlns:cc="http://creativecommons.org/ns#" sodipodi:docname="Nieuw document 1"
	 xmlns="http://www.w3.org/2000/svg" xmlns:xlink="http://www.w3.org/1999/xlink" x="0px" y="0px" width="108px" height="108px"
	 viewBox="0 0 108 108" enable-background="new 0 0 108 108" xml:space="preserve">
<sodipodi:namedview  id="base" inkscape:window-maximized="1" inkscape:zoom="0.7" inkscape:cx="491.8414" inkscape:document-units="px" inkscape:window-height="1018" fit-margin-top="0" fit-margin-bottom="0" showgrid="false" inkscape:window-y="-8" pagecolor="#ffffff" fit-margin-right="0" borderopacity="1.0" bordercolor="#666666" inkscape:pageopacity="0.0" inkscape:current-layer="g2999" inkscape:cy="22.497132" fit-margin-left="0" inkscape:window-x="-8" inkscape:pageshadow="2" inkscape:window-width="1920">
	</sodipodi:namedview>
<g>
	<path fill="#4cc1b6" d="M41.312,10.441c-5.514,0-10.762,0.906-15.709,2.757c-4.985,1.887-9.402,4.682-13.216,8.345
		c-3.813,3.702-6.797,8.271-9.024,13.708C1.132,40.688,0,46.994,0,54.134c0,7.173,1.095,13.48,3.247,18.879
		c2.152,5.438,5.098,9.971,8.875,13.631c3.738,3.664,8.156,6.459,13.179,8.311c5.024,1.848,10.348,2.756,16.012,2.756
		c5.814,0,11.252-0.908,16.35-2.756c5.023-1.852,9.402-4.646,13.068-8.311c3.697-3.66,6.605-8.193,8.684-13.631
		c1.473-3.777,2.455-8.004,2.91-12.648c0.15-1.853,0.225-3.741,0.262-5.739c0-0.15,0-0.304,0-0.491
		c0-7.138-1.094-13.446-3.246-18.883c-2.117-5.438-5.061-10.006-8.838-13.708c-3.738-3.663-8.156-6.458-13.215-8.345
		C52.3,11.348,46.974,10.441,41.312,10.441L41.312,10.441z M16.539,53.301c0-3.967,0.605-7.515,1.851-10.574
		c1.246-3.097,2.908-5.702,5.061-7.778c2.151-2.152,4.644-3.813,7.553-4.909c2.909-1.097,5.967-1.623,9.25-1.623
		c2.228,0,4.229,0.149,6.044,0.415c1.773,0.339,3.323,0.717,4.605,1.094c1.322,0.34,2.381,0.755,3.209,1.171
		c0.872,0.416,1.475,0.716,1.854,0.981l-3.098,8.608c-1.473-0.792-3.172-1.434-5.06-2c-1.853-0.565-3.929-0.869-6.194-0.869
		c-4.946,0-8.532,1.396-10.761,4.153c-2.228,2.758-3.323,6.534-3.323,11.328c0,2.342,0.264,4.456,0.831,6.381
		c0.566,1.925,1.396,3.549,2.492,4.872c1.095,1.359,2.456,2.418,4.117,3.21c1.659,0.719,3.586,1.094,5.777,1.094
		c1.168,0,2.188,0,3.02-0.037c0.87-0.039,1.624-0.15,2.265-0.264v-16.54h10.723v23.487c-1.281,0.492-3.321,1.059-6.152,1.625
		c-2.832,0.566-6.345,0.83-10.498,0.83c-3.552,0-6.8-0.531-9.706-1.588c-2.908-1.131-5.361-2.756-7.439-4.832
		c-2.039-2.115-3.625-4.682-4.72-7.741C17.106,60.704,16.539,57.19,16.539,53.301L16.539,53.301z"/>
	<path fill="#4cc1b6" d="M108,21.353c0-3.624-1.133-6.38-3.438-8.231c-2.301-1.887-4.908-2.831-7.816-2.831
		c-2.869,0-5.477,0.944-7.779,2.831c-2.305,1.852-3.436,4.607-3.436,8.231c0,3.588,1.131,6.346,3.436,8.195
		c2.303,1.851,4.91,2.795,7.779,2.795c2.908,0,5.516-0.946,7.816-2.795C106.867,27.698,108,24.943,108,21.353L108,21.353z"/>
</g>
</svg>
